<svg width="154" height="154" viewBox="0 0 154 154" fill="none" xmlns="http://www.w3.org/2000/svg">
<g id="Icon/Solid/document-remove">
<path id="Icon" fill-rule="evenodd" clip-rule="evenodd" d="M46.2008 15.4C37.6956 15.4 30.8008 22.2948 30.8008 30.8V123.2C30.8008 131.705 37.6956 138.6 46.2008 138.6H107.801C116.306 138.6 123.201 131.705 123.201 123.2V57.0895C123.201 53.0051 121.578 49.0881 118.69 46.2L92.4008 19.9106C89.5127 17.0225 85.5957 15.4 81.5113 15.4H46.2008ZM53.9008 77C49.6482 77 46.2008 80.4474 46.2008 84.7C46.2008 88.9526 49.6482 92.4 53.9008 92.4H100.101C104.353 92.4 107.801 88.9526 107.801 84.7C107.801 80.4474 104.353 77 100.101 77H53.9008Z" fill="#C92025" stroke="black" stroke-width="4" stroke-linejoin="round"/>
</g>
</svg>
