<svg width="64" height="64" viewBox="0 0 64 64" fill="none" xmlns="http://www.w3.org/2000/svg">
<g id="Icon/Solid/user-circle">
<path id="Icon" fill-rule="evenodd" clip-rule="evenodd" d="M57.6004 32.0004C57.6004 46.1389 46.1389 57.6004 32.0004 57.6004C17.8619 57.6004 6.40039 46.1389 6.40039 32.0004C6.40039 17.8619 17.8619 6.40039 32.0004 6.40039C46.1389 6.40039 57.6004 17.8619 57.6004 32.0004ZM38.4004 22.4004C38.4004 25.935 35.535 28.8004 32.0004 28.8004C28.4658 28.8004 25.6004 25.935 25.6004 22.4004C25.6004 18.8658 28.4658 16.0004 32.0004 16.0004C35.535 16.0004 38.4004 18.8658 38.4004 22.4004ZM32.0002 35.2004C25.544 35.2004 19.981 39.0242 17.4523 44.5307C20.9733 48.6149 26.1849 51.2004 32.0003 51.2004C37.8157 51.2004 43.0272 48.615 46.5481 44.5309C44.0195 39.0244 38.4564 35.2004 32.0002 35.2004Z" fill="#4E5967"/>
</g>
</svg>
